<?xml version="1.0" encoding="UTF-8"?>
<svg xmlns="http://www.w3.org/2000/svg" viewBox="0 0 512 512" role="img" aria-labelledby="title desc">
  <title id="title">Girmek yasaktır</title>
  <desc id="desc">Kırmızı yasak çemberi ve çapraz çizgi içinde açık el piktogramı</desc>
  <circle cx="256" cy="256" r="204" fill="#FFFFFF" stroke="#D8202A" stroke-width="44"/>
  <path fill="#17191C" d="M197 359c-22-25-36-55-43-86-3-14 5-27 19-31 13-4 26 3 32 15l11 23V168c0-16 12-29 28-29s29 13 29 29v74l8-91c1-16 15-28 31-26 16 1 27 15 25 31l-9 88 13-73c3-16 18-26 34-23 15 3 25 18 22 33l-14 78 13-49c4-15 19-24 34-20 15 4 24 19 20 34l-27 104c-10 42-48 72-91 72h-38c-29 0-57-13-76-35z"/>
  <line x1="116" y1="116" x2="396" y2="396" stroke="#D8202A" stroke-width="48" stroke-linecap="round"/>
</svg>
